<svg width="296" height="135" viewBox="0 0 296 135" fill="none" xmlns="http://www.w3.org/2000/svg">
<path d="M36.9996 0L33 21H83.5L71.5 81H51.5L59.5 41H29.5L20.5 81H1L17.5 0H36.9996Z" fill="white"/>
<path d="M89.5 20.6273H180.5L184 0H204L200 20.6273H295.5L291.5 40.7516L252 61.3789H287L283.5 81H208.5L213 61.3789L253 40.7516H196L187.5 81H168.5L176 40.7516H156L147 81L131.5 61L136 40.7516H105L102 61H131.5L147 81H77L89.5 20.6273Z" fill="white"/>
<path d="M205.5 92H281.5L275.5 122H255.5L257.5 112H202.5L205.5 92Z" fill="white"/>
<path d="M192.5 134.5L0 92H200L192.5 134.5ZM100.336 94.4404C98.5442 94.4404 97.224 94.88 96.376 95.7598C95.544 96.6238 95.1279 97.7283 95.1279 99.0723C95.128 101.392 96.3035 102.936 98.6553 103.704L100.624 104.352C101.376 104.592 101.887 104.872 102.159 105.192C102.447 105.512 102.592 105.952 102.592 106.512C102.592 107.888 101.664 108.576 99.8076 108.576C99.1996 108.576 98.5755 108.504 97.9355 108.36C97.3115 108.2 96.5513 107.928 95.6553 107.544L94.7676 110.016C95.7436 110.464 96.6401 110.784 97.4561 110.976C98.2879 111.152 99.0876 111.24 99.8555 111.24C101.807 111.24 103.239 110.8 104.151 109.92C105.063 109.024 105.52 107.856 105.52 106.416C105.52 105.168 105.215 104.168 104.607 103.416C104.015 102.648 103.127 102.064 101.943 101.664L99.9756 101.016C99.2876 100.792 98.7913 100.52 98.4873 100.2C98.1993 99.8642 98.0557 99.4397 98.0557 98.9277C98.0557 98.2399 98.2637 97.7677 98.6797 97.5117C99.1117 97.2398 99.6958 97.1035 100.432 97.1035C100.992 97.1035 101.536 97.1763 102.063 97.3203C102.607 97.4483 103.263 97.6638 104.031 97.9678L104.92 95.4961C104.088 95.1281 103.303 94.8641 102.567 94.7041C101.832 94.5282 101.088 94.4405 100.336 94.4404ZM164.91 94.4404C163.838 94.4405 162.918 94.6485 162.15 95.0645C161.383 95.4644 160.798 96.0084 160.398 96.6963C159.999 97.3842 159.799 98.1521 159.799 99C159.799 99.8798 159.974 100.648 160.326 101.304C160.694 101.96 161.215 102.512 161.887 102.96C161.039 103.52 160.431 104.136 160.062 104.808C159.695 105.464 159.511 106.184 159.511 106.968C159.511 107.752 159.695 108.464 160.062 109.104C160.43 109.744 161.006 110.264 161.79 110.664C162.574 111.048 163.598 111.24 164.862 111.24C166.142 111.24 167.198 111.032 168.03 110.616C168.862 110.2 169.479 109.64 169.879 108.936C170.295 108.232 170.503 107.439 170.503 106.56C170.503 104.736 169.678 103.36 168.03 102.432C168.798 101.904 169.342 101.336 169.662 100.728C169.998 100.104 170.166 99.4401 170.166 98.7363C170.166 97.9364 169.966 97.2161 169.566 96.5762C169.182 95.9202 168.598 95.3996 167.814 95.0156C167.03 94.6317 166.062 94.4404 164.91 94.4404ZM189.953 94.4404C188.881 94.4404 187.961 94.6485 187.193 95.0645C186.425 95.4645 185.841 96.0083 185.441 96.6963C185.041 97.3843 184.841 98.152 184.841 99C184.841 99.8799 185.017 100.648 185.369 101.304C185.737 101.96 186.257 102.512 186.929 102.96C186.081 103.52 185.472 104.136 185.104 104.808C184.737 105.464 184.553 106.184 184.553 106.968C184.553 107.752 184.736 108.464 185.104 109.104C185.472 109.744 186.049 110.264 186.833 110.664C187.617 111.048 188.641 111.24 189.905 111.24C191.185 111.24 192.241 111.032 193.073 110.616C193.905 110.2 194.521 109.64 194.921 108.936C195.337 108.232 195.545 107.439 195.545 106.56C195.545 104.736 194.721 103.36 193.073 102.432C193.841 101.904 194.385 101.335 194.705 100.728C195.041 100.104 195.209 99.4401 195.209 98.7363C195.209 97.9365 195.009 97.2161 194.609 96.5762C194.225 95.9202 193.641 95.3996 192.857 95.0156C192.073 94.6316 191.105 94.4404 189.953 94.4404ZM108.678 94.6797V111H118.134V108.24H111.558V104.112H117.174V101.352H111.558V97.4404H117.894V94.6797H108.678ZM121.545 94.6797V111H124.425V94.6797H121.545ZM126.983 94.6797V97.4404H131.543V111H134.424V97.4404H138.983V94.6797H126.983ZM153.392 94.6797L149.239 97.0078L150.512 99.1924L152.96 97.8477V111H155.792V94.6797H153.392ZM172.412 94.6797V97.3916H179.42C178.348 99.6475 177.444 101.912 176.708 104.184C175.972 106.456 175.381 108.728 174.933 111H177.956C178.404 108.696 179.004 106.392 179.756 104.088C180.524 101.768 181.452 99.4562 182.54 97.1523V94.6797H172.412ZM165.391 104.304C166.223 104.56 166.807 104.888 167.143 105.288C167.495 105.672 167.671 106.104 167.671 106.584C167.671 107.224 167.43 107.736 166.95 108.12C166.486 108.504 165.839 108.696 165.007 108.696C164.159 108.696 163.502 108.504 163.038 108.12C162.574 107.72 162.343 107.199 162.343 106.56C162.343 106.096 162.487 105.656 162.774 105.24C163.062 104.824 163.503 104.376 164.095 103.896L165.391 104.304ZM190.433 104.304C191.265 104.56 191.849 104.888 192.185 105.288C192.537 105.672 192.713 106.104 192.713 106.584C192.713 107.224 192.473 107.736 191.993 108.12C191.529 108.504 190.881 108.696 190.049 108.696C189.201 108.696 188.545 108.504 188.081 108.12C187.617 107.72 187.385 107.2 187.385 106.56C187.385 106.096 187.529 105.656 187.817 105.24C188.105 104.824 188.545 104.376 189.137 103.896L190.433 104.304ZM164.982 96.9844C165.734 96.9844 166.311 97.1756 166.711 97.5596C167.127 97.9276 167.334 98.4323 167.334 99.0723C167.334 99.4882 167.222 99.896 166.998 100.296C166.79 100.68 166.414 101.104 165.87 101.568L164.694 101.208C163.318 100.776 162.631 100.056 162.631 99.0479C162.631 98.408 162.831 97.9041 163.23 97.5361C163.646 97.1681 164.23 96.9844 164.982 96.9844ZM190.025 96.9844C190.777 96.9844 191.353 97.1758 191.753 97.5596C192.169 97.9276 192.377 98.4323 192.377 99.0723C192.377 99.4881 192.265 99.896 192.041 100.296C191.833 100.68 191.457 101.104 190.913 101.568L189.737 101.208C188.361 100.776 187.673 100.056 187.673 99.0479C187.673 98.4079 187.873 97.9041 188.273 97.5361C188.689 97.1683 189.274 96.9844 190.025 96.9844Z" fill="white"/>
</svg>
